<svg xmlns="http://www.w3.org/2000/svg" width="99.545" height="99.529" viewBox="0 0 99.545 99.529">
  <g id="Grupo_35" data-name="Grupo 35" transform="translate(-1086.003 -1429.119)">
    <path id="Caminho_76" data-name="Caminho 76" d="M1086,1467.008v-1.361a23.517,23.517,0,0,1,2.277-2.568c2.543-2.16,5.177-4.213,7.744-6.345a2.123,2.123,0,0,0,.687-1.171c.615-3.606,1.181-7.219,1.752-10.832a3.4,3.4,0,0,1,3.23-3.19c3.615-.566,7.229-1.135,10.835-1.746a1.973,1.973,0,0,0,1.094-.641c2.27-2.748,4.5-5.527,6.745-8.3,1.493-1.843,2.549-2.126,4.75-1.28,3.262,1.253,6.514,2.531,9.8,3.732a2.732,2.732,0,0,0,1.737.006c3.28-1.2,6.531-2.484,9.792-3.738,2.21-.85,3.274-.57,4.757,1.26,2.2,2.718,4.388,5.453,6.627,8.141a2.558,2.558,0,0,0,1.4.832c3.54.617,7.091,1.17,10.641,1.723a3.417,3.417,0,0,1,3.261,3.267c.561,3.581,1.126,7.162,1.736,10.736a2.118,2.118,0,0,0,.675,1.178c2.77,2.294,5.577,4.543,8.368,6.812,1.716,1.4,2.01,2.53,1.213,4.608-1.24,3.231-2.463,6.47-3.737,9.688a2.646,2.646,0,0,0,.013,2.127c1.272,3.184,2.479,6.394,3.708,9.6.839,2.183.544,3.253-1.3,4.747-2.769,2.244-5.546,4.478-8.292,6.75a1.972,1.972,0,0,0-.635,1.1c-.612,3.606-1.183,7.219-1.751,10.833a3.42,3.42,0,0,1-3.3,3.233c-3.551.551-7.1,1.112-10.643,1.719a2.263,2.263,0,0,0-1.261.71c-2.175,2.616-4.266,5.3-6.464,7.9a20.007,20.007,0,0,1-2.446,2.116h-1.361c-3.786-1.463-7.569-2.934-11.364-4.374a1.552,1.552,0,0,0-1.014.006c-3.79,1.438-7.568,2.907-11.349,4.368h-1.361a21.608,21.608,0,0,1-2.509-2.2c-2.178-2.567-4.248-5.225-6.4-7.816a2.11,2.11,0,0,0-1.165-.694c-3.6-.614-7.215-1.179-10.826-1.746a3.4,3.4,0,0,1-3.209-3.207c-.564-3.578-1.121-7.158-1.739-10.727a2.411,2.411,0,0,0-.783-1.321c-2.535-2.116-5.145-4.143-7.66-6.282a23.48,23.48,0,0,1-2.275-2.565v-1.361c1.46-3.784,2.928-7.564,4.365-11.356a1.554,1.554,0,0,0,0-1.012C1088.931,1474.571,1087.463,1470.791,1086,1467.008Zm92.7.409c-.2-.189-.42-.413-.659-.607-2.516-2.041-5.021-4.1-7.563-6.105a4.247,4.247,0,0,1-1.628-2.862c-.487-3.233-1.036-6.455-1.52-9.688-.082-.545-.259-.751-.817-.834-3.2-.478-6.392-1.031-9.594-1.5a4.424,4.424,0,0,1-3.026-1.709c-2-2.548-4.075-5.037-6.091-7.573a.936.936,0,0,0-1.3-.334c-3.035,1.208-6.1,2.342-9.14,3.537a4.149,4.149,0,0,1-3.2-.008c-3.009-1.186-6.046-2.3-9.05-3.5a1.047,1.047,0,0,0-1.443.4c-1.971,2.489-4.017,4.919-5.967,7.424a4.59,4.59,0,0,1-3.193,1.779c-3.14.451-6.265,1.005-9.4,1.473-.582.086-.8.271-.889.872-.469,3.17-1.026,6.326-1.489,9.5a4.517,4.517,0,0,1-1.751,3.107c-2.525,1.977-4.982,4.04-7.5,6.027a.989.989,0,0,0-.349,1.374c1.19,3.008,2.3,6.045,3.492,9.053a4.241,4.241,0,0,1,0,3.291c-1.19,3.007-2.3,6.045-3.5,9.049a.988.988,0,0,0,.375,1.368c2.489,1.97,4.921,4.014,7.425,5.965a4.6,4.6,0,0,1,1.813,3.176c.458,3.17,1.013,6.327,1.492,9.495.081.535.243.755.81.84,3.2.475,6.392,1.029,9.594,1.5a4.416,4.416,0,0,1,3.027,1.705c2,2.548,4.076,5.037,6.092,7.572a.936.936,0,0,0,1.294.342c3.036-1.207,6.1-2.34,9.14-3.539a4.164,4.164,0,0,1,3.2,0c3.041,1.194,6.1,2.33,9.141,3.537a.935.935,0,0,0,1.292-.348c1.995-2.512,4.055-4.972,6.025-7.5a4.585,4.585,0,0,1,3.189-1.786c3.14-.449,6.264-1,9.4-1.475.572-.086.811-.248.9-.863.474-3.234,1.029-6.456,1.516-9.688a4.246,4.246,0,0,1,1.641-2.856c2.542-2.009,5.033-4.081,7.575-6.09a.992.992,0,0,0,.357-1.376c-1.193-3.006-2.31-6.042-3.5-9.049a4.236,4.236,0,0,1,.008-3.291c1.19-3.007,2.325-6.036,3.482-9.056C1178.5,1467.947,1178.585,1467.736,1178.708,1467.417Z" fill="#d3d3d3"/>
    <path id="Caminho_77" data-name="Caminho 77" d="M1154.459,1457.539a13.328,13.328,0,0,1-1.032,1.971q-10.7,15.043-21.451,30.054-4.489,6.285-8.979,12.573a3.186,3.186,0,0,1-3.02,1.583,3.045,3.045,0,0,1-2.311-4.767c1.041-1.6,2.2-3.126,3.308-4.681q13.75-19.254,27.506-38.505c1.133-1.587,2.409-2.1,3.884-1.591A3.31,3.31,0,0,1,1154.459,1457.539Z" fill="#d3d3d3"/>
    <path id="Caminho_78" data-name="Caminho 78" d="M1154.451,1494.472a9.326,9.326,0,1,1-9.305-9.373A9.421,9.421,0,0,1,1154.451,1494.472Zm-9.339-3.151a3.1,3.1,0,1,0,3.116,3.068A3.119,3.119,0,0,0,1145.112,1491.321Z" fill="#d3d3d3"/>
    <path id="Caminho_79" data-name="Caminho 79" d="M1126.313,1472.637a9.326,9.326,0,1,1,9.469-9.2A9.4,9.4,0,0,1,1126.313,1472.637Zm3.247-9.306a3.1,3.1,0,1,0-3.1,3.086A3.13,3.13,0,0,0,1129.56,1463.331Z" fill="#d3d3d3"/>
  </g>
</svg>
