<svg xmlns="http://www.w3.org/2000/svg" width="97.439" height="97.267" viewBox="0 0 97.439 97.267">
  <g id="Grupo_33" data-name="Grupo 33" transform="translate(-383.563 -1430.25)">
    <path id="Caminho_57" data-name="Caminho 57" d="M383.563,1525.427v-74.652c.645-1.682,1.9-2.248,3.656-2.235,6.534.048,13.068.019,19.6.019h1.208v-1.152c0-3.546.022-7.092-.01-10.637-.013-1.452.363-2.655,1.8-3.24a2.952,2.952,0,0,1,3.484,1.019c.518.556,1.074,1.077,1.612,1.615l5.221,5.219a10.763,10.763,0,0,1,.71-.886q4.5-4.509,9.013-9c1.662-1.658,3.18-1.661,4.846,0q4.548,4.527,9.085,9.064c.237.236.488.459.768.722,2.389-2.394,4.7-4.746,7.048-7.053a2.811,2.811,0,0,1,4.728.957,4.976,4.976,0,0,1,.192,1.587c.015,3.546.006,7.091.011,10.637,0,.363.036.725.059,1.152h1.242c6.5,0,13,.029,19.505-.019,1.753-.012,3.012.553,3.657,2.235v74.652a4.391,4.391,0,0,1-2.094,2.09H385.656A4.385,4.385,0,0,1,383.563,1525.427Zm5.75-3.677h85.94v-67.421H456.536c0,.949,0,1.829,0,2.708-.016,2.249-1.082,3.339-3.318,3.34q-20.934.009-41.866,0c-2.232,0-3.307-1.1-3.321-3.338-.006-.9,0-1.809,0-2.722H389.313Zm24.474-67.13h36.972v-11.551c-1.361,1.373-2.548,2.583-3.748,3.78-1.777,1.774-3.22,1.779-4.979.024q-4.508-4.494-9.012-8.992c-.237-.236-.489-.457-.819-.763-.3.34-.51.616-.755.861q-4.568,4.569-9.147,9.126a2.885,2.885,0,0,1-4.505-.02c-.88-.867-1.749-1.745-2.624-2.616-.412-.411-.827-.82-1.383-1.371Z" fill="#d3d3d3"/>
    <path id="Caminho_58" data-name="Caminho 58" d="M453.47,1511.146h1.3c4.661,0,9.323-.011,13.985.007a2.787,2.787,0,0,1,3.057,2.8,2.849,2.849,0,0,1-3.1,2.884q-8.943.023-17.887,0a2.853,2.853,0,0,1-3.059-3.03q-.039-8.974,0-17.948a2.841,2.841,0,0,1,3.05-3.035q8.944-.027,17.887,0a2.834,2.834,0,0,1,3.107,2.866c-.016,1.694-1.223,2.81-3.145,2.818-4.693.02-9.387.033-14.081-.014-.938-.009-1.226.276-1.134,1.175.074.715.015,1.443.015,2.31h1.192c3.965,0,7.929-.011,11.893.006,1.745.007,2.716.689,3.1,2.094a2.763,2.763,0,0,1-2.253,3.525,8.02,8.02,0,0,1-1.231.071c-3.933.005-7.866.018-11.8-.011-.7-.005-.972.18-.92.9C453.515,1509.382,453.47,1510.2,453.47,1511.146Z" fill="#d3d3d3"/>
    <path id="Caminho_59" data-name="Caminho 59" d="M404.187,1516.844c-1.269,0-2.538.019-3.806-.005a2.84,2.84,0,0,1-3.038-2.839,2.784,2.784,0,0,1,3.007-2.846c2.379-.025,4.757-.009,7.136-.007a1.779,1.779,0,0,0,1.947-1.19,1.675,1.675,0,0,0-1.689-2.255c-1.965-.053-3.933,0-5.9-.029a7.423,7.423,0,1,1-.26-14.843c2.5-.057,5.011-.03,7.516-.005a2.849,2.849,0,1,1,.017,5.683c-2.346.031-4.7-.039-7.039.043a2.587,2.587,0,0,0-1.709.74,2.077,2.077,0,0,0-.2,1.654,1.549,1.549,0,0,0,1.652,1.03c2.22.022,4.443-.034,6.658.074a7.334,7.334,0,0,1,6.479,5.2,7.5,7.5,0,0,1-7.059,9.593C406.661,1516.864,405.423,1516.844,404.187,1516.844Z" fill="#d3d3d3"/>
    <path id="Caminho_60" data-name="Caminho 60" d="M455.435,1473.8c0-2.374-.044-4.749.014-7.121a2.778,2.778,0,0,1,3.58-2.721,2.594,2.594,0,0,1,2.009,2.168,7.885,7.885,0,0,1,.094,1.322c.007,4.114,0,8.229.009,12.344a4.1,4.1,0,0,0,.119,1.221,1.7,1.7,0,0,0,3.159.077,3.888,3.888,0,0,0,.179-1.3c.013-4.336-.011-8.673.019-13.009a2.816,2.816,0,0,1,4.113-2.628,2.528,2.528,0,0,1,1.544,2.336c.01,4.967.149,9.945-.142,14.9-.232,3.92-3.58,6.53-7.51,6.413a7.143,7.143,0,0,1-7.126-6.878c-.123-2.367-.023-4.745-.023-7.119Z" fill="#d3d3d3"/>
    <path id="Caminho_61" data-name="Caminho 61" d="M416.331,1469.455c.693-1.381,1.292-2.595,1.908-3.8a2.864,2.864,0,1,1,5.1,2.559c-1.121,2.266-2.244,4.533-3.41,6.777a1.582,1.582,0,0,0-.019,1.655c1.216,2.325,2.387,4.675,3.538,7.033a2.851,2.851,0,0,1-.663,3.463,2.725,2.725,0,0,1-3.267.283,4.247,4.247,0,0,1-1.24-1.384c-.67-1.179-1.236-2.417-1.941-3.824-.7,1.388-1.327,2.636-1.952,3.887a2.85,2.85,0,1,1-5.134-2.468c1.123-2.336,2.29-4.652,3.482-6.953a1.6,1.6,0,0,0,.019-1.662q-1.815-3.492-3.524-7.039a2.831,2.831,0,0,1,4.464-3.358,5.1,5.1,0,0,1,.839,1.249C415.124,1467.01,415.684,1468.166,416.331,1469.455Z" fill="#d3d3d3"/>
    <path id="Caminho_62" data-name="Caminho 62" d="M426.738,1475.745a41.12,41.12,0,0,1,.051-5.96c.533-3.6,3.771-6,7.593-5.936a7.621,7.621,0,0,1,7.009,6.172c.34,1.991-.385,3.444-1.957,3.922a2.864,2.864,0,0,1-3.71-2.492,2.415,2.415,0,0,0-.653-1.473,1.683,1.683,0,0,0-2.723,1.109c-.1,3.162-.079,6.328-.036,9.492a1.64,1.64,0,0,0,1.731,1.546,1.605,1.605,0,0,0,1.654-1.514,2.965,2.965,0,0,1,3.174-3.022c1.9.283,2.85,1.751,2.535,3.957a7.686,7.686,0,0,1-6.823,6.279c-3.863.138-7.229-2.24-7.773-5.836a42.176,42.176,0,0,1-.056-6.242Z" fill="#d3d3d3"/>
    <path id="Caminho_63" data-name="Caminho 63" d="M436.129,1504.88c1.162-3.467,2.235-6.7,3.33-9.919a2.849,2.849,0,1,1,5.4,1.783c-1.733,5.252-3.495,10.495-5.245,15.741-.239.72-.466,1.444-.716,2.16a2.9,2.9,0,0,1-2.787,2.18,2.861,2.861,0,0,1-2.789-2.169q-2.343-6.961-4.656-13.933c-.449-1.348-.914-2.692-1.341-4.048a2.864,2.864,0,0,1,1.744-3.7,2.836,2.836,0,0,1,3.636,1.874c1.05,3.046,2.051,6.11,3.076,9.165C435.849,1504.22,435.941,1504.417,436.129,1504.88Z" fill="#d3d3d3"/>
    <path id="Caminho_64" data-name="Caminho 64" d="M400.011,1469.543v3.441c1.288-.019,2.678-.091,3.457,1.181a3.631,3.631,0,0,1,.508,1.868c-.035,1.72-.959,2.325-3.962,2.753v3.348c1.017,0,2.047-.02,3.075,0a2.772,2.772,0,0,1,2.955,2.893,2.692,2.692,0,0,1-2.659,2.778c-2.122.054-4.247.047-6.369.006a2.772,2.772,0,0,1-2.751-2.828q-.047-9.158,0-18.314a2.782,2.782,0,0,1,2.952-2.819q2.946-.033,5.894,0a2.726,2.726,0,0,1,2.932,2.8,2.775,2.775,0,0,1-2.876,2.882C402.135,1469.579,401.1,1469.543,400.011,1469.543Z" fill="#d3d3d3"/>
    <path id="Caminho_65" data-name="Caminho 65" d="M450.409,1482.027c.4.1.735.164,1.06.266a2.825,2.825,0,0,1-.655,5.519c-1.138.049-2.283.053-3.421,0a2.879,2.879,0,0,1-2.689-3.184q-.015-7.781,0-15.56c0-.728-.017-1.456,0-2.182a2.811,2.811,0,0,1,2.938-3.016,2.768,2.768,0,0,1,2.76,3.071c.016,4.68.006,9.361.006,14.042Z" fill="#d3d3d3"/>
    <path id="Caminho_66" data-name="Caminho 66" d="M418.741,1504.843c0-2.942-.005-5.884,0-8.826a2.869,2.869,0,1,1,5.7-.026q.015,8.874,0,17.748a2.8,2.8,0,0,1-2.52,3.045,2.759,2.759,0,0,1-3.059-1.989,5.243,5.243,0,0,1-.118-1.315C418.736,1510.6,418.741,1507.722,418.741,1504.843Z" fill="#d3d3d3"/>
  </g>
</svg>
