<svg xmlns="http://www.w3.org/2000/svg" width="99.783" height="99.578" viewBox="0 0 99.783 99.578">
  <g id="Grupo_36" data-name="Grupo 36" transform="translate(-1437.826 -1429.094)">
    <path id="Caminho_80" data-name="Caminho 80" d="M1437.826,1487.266c.6-1.908,2.023-3.043,3.625-4.11q14.828-9.876,29.591-19.847a4.086,4.086,0,0,0,1.072-1.09q6.183-9.216,12.331-18.455c.162-.243.318-.491.5-.722a1.415,1.415,0,0,1,2.043-.374,1.363,1.363,0,0,1,.378,1.963c-.741,1.182-1.537,2.329-2.307,3.492-.213.322-.419.648-.663,1.024,1.2.789,2.344,1.588,3.546,2.281a1.3,1.3,0,0,0,1.085-.193q7.623-5.062,15.212-10.177c1.127-.755,2.251-1.514,3.467-2.333-.25-.192-.409-.332-.584-.447q-4.31-2.836-8.623-5.667c-1.479-.966-2.57-.747-3.555.709-1.164,1.72-2.306,3.455-3.468,5.176-.665.984-1.394,1.2-2.194.668-.78-.514-.87-1.309-.226-2.282,1.163-1.76,2.329-3.518,3.513-5.263a5.08,5.08,0,0,1,7.452-1.51q4.806,3.144,9.592,6.319a1.225,1.225,0,0,0,1.469.108,5,5,0,0,1,6.552,1.6,35.855,35.855,0,0,1,2.157,3.24,13.171,13.171,0,0,0,5.315,5.234c1.159.644,2.222,1.461,3.343,2.177,2.006,1.281,3.206,4.844,1.509,6.959-.143.178-.018.719.153.979,2.09,3.17,4.215,6.317,6.324,9.474,1.992,2.981,1.442,5.8-1.528,7.794q-14.994,10.065-29.979,20.142a7.358,7.358,0,0,0-1.937,1.949q-8.316,12.357-16.561,24.762c-1.189,1.782-2.368,3.57-3.572,5.341a5.111,5.111,0,0,1-7.392,1.511q-4.812-3.135-9.6-6.312a1.3,1.3,0,0,0-1.559-.118,4.988,4.988,0,0,1-6.534-1.671c-1.289-1.87-2.518-3.782-3.809-5.651a4.229,4.229,0,0,0-1.089-1.07c-1.827-1.237-3.683-2.431-5.526-3.645a5.126,5.126,0,0,1-1.932-7.024,1.425,1.425,0,0,0-.12-1.178c-1.9-2.908-3.864-5.77-5.758-8.68-.649-.995-1.146-2.089-1.713-3.138ZM1497.1,1499.6l-.109-.141c-.132.081-.268.156-.4.242q-7.724,5.18-15.445,10.358c-.728.488-1.442,1-2.2,1.442a1.449,1.449,0,0,1-1.614-2.4c.252-.2.531-.374.8-.555q17.628-11.823,35.255-23.647c.616-.413,1.23-.827,1.935-1.3l-21.532-32c-.255.16-.393.243-.527.332q-25.592,17.166-51.183,34.335c-1.53,1.027-1.729,2.08-.7,3.616q9.261,13.837,18.528,27.67c1.086,1.621,2.092,1.808,3.759.7,2.646-1.765,5.283-3.544,7.93-5.308.968-.645,1.767-.549,2.277.238s.285,1.542-.679,2.2c-1.315.895-2.641,1.774-3.959,2.665-.489.331-.97.675-1.528,1.064,3.115,2.049,6.1,4.011,9.079,5.97,1.689,1.11,2.691.905,3.824-.792q4.841-7.247,9.675-14.5Q1493.693,1504.7,1497.1,1499.6Zm20.64-17.653c.256-.152.45-.254.632-.376q7.439-4.988,14.874-9.981c1.666-1.12,1.848-2.127.708-3.83q-9.205-13.754-18.414-27.505c-1.083-1.617-2.137-1.822-3.761-.734q-5.177,3.468-10.349,6.942c-1.719,1.153-3.436,2.309-5.213,3.5Zm-35.01-30.342-4.423,6.632.155.117,7.217-4.853c-.823-.542-1.523-1.007-2.227-1.466C1483.237,1451.9,1483.01,1451.771,1482.73,1451.6ZM1527.6,1453a1.486,1.486,0,0,0-1.216-1.8Zm-79.755,51.791-.319.217,1.242,1.824.3-.2Z" fill="#d3d3d3"/>
    <path id="Caminho_81" data-name="Caminho 81" d="M1461.7,1503.465c-.907-1.363-1.782-2.682-2.662-4-1.136-1.7-2.26-3.408-3.425-5.087a1.775,1.775,0,0,1,.005-2.309c2.878-3.966,5.722-7.957,8.591-11.929.893-1.235,1.957-1.219,2.81.05q4.077,6.055,8.117,12.135a3.779,3.779,0,0,1-.033,4.468,3.835,3.835,0,0,1-4.032,1.552,3.748,3.748,0,0,1-2.954-3.011,3.906,3.906,0,0,1,1.637-3.9c.266-.18.549-.335.9-.549l-5.1-7.614-2.723,3.788c-1.326,1.845-2.63,3.7-3.991,5.524a.982.982,0,0,0-.016,1.355q3.687,5.439,7.315,10.916a3.916,3.916,0,1,1-5.242-.9C1461.144,1503.794,1461.39,1503.654,1461.7,1503.465Zm1.014,4.777.408.024c.274-.365.742-.721.76-1.1.014-.3-.6-.934-.793-.883a1.593,1.593,0,0,0-1,.9C1462.011,1507.45,1462.489,1507.884,1462.717,1508.242Zm10.331-13.45-.012-.4c-.321-.238-.618-.625-.969-.683a.838.838,0,0,0-1.039.954,1.179,1.179,0,0,0,.845.792C1472.272,1495.438,1472.657,1495.03,1473.048,1494.792Z" fill="#d3d3d3"/>
    <path id="Caminho_82" data-name="Caminho 82" d="M1495.51,1466.2c.414.373.969.653,1.13,1.081a2.714,2.714,0,0,1-.154,1.51c-.055.2-.369.346-.583.489q-8.839,5.932-17.684,11.855c-.968.648-1.654.592-2.223-.135-.61-.779-.451-1.572.493-2.212,2.71-1.835,5.432-3.653,8.149-5.477q4.763-3.2,9.53-6.386C1494.535,1466.679,1494.946,1466.5,1495.51,1466.2Z" fill="#d3d3d3"/>
    <path id="Caminho_83" data-name="Caminho 83" d="M1496.1,1480.443a3.182,3.182,0,0,1-.707.921q-5.994,4.074-12.036,8.075a1.447,1.447,0,1,1-1.582-2.422q6-4.06,12.036-8.074C1494.846,1478.258,1496.092,1478.966,1496.1,1480.443Z" fill="#d3d3d3"/>
    <path id="Caminho_84" data-name="Caminho 84" d="M1517.363,1459.917a1.424,1.424,0,0,1-1.41,1.435,1.626,1.626,0,0,1-1.581-1.64,1.462,1.462,0,0,1,1.409-1.45A1.67,1.67,0,0,1,1517.363,1459.917Z" fill="#d3d3d3"/>
    <path id="Caminho_85" data-name="Caminho 85" d="M1521.791,1467.288a1.584,1.584,0,0,1,1.565,1.528,1.508,1.508,0,0,1-1.407,1.463,1.544,1.544,0,0,1-1.539-1.442A1.428,1.428,0,0,1,1521.791,1467.288Z" fill="#d3d3d3"/>
    <path id="Caminho_86" data-name="Caminho 86" d="M1509.868,1449.372a1.512,1.512,0,0,1,1.459,1.508,1.456,1.456,0,0,1-1.464,1.478,1.606,1.606,0,0,1-1.479-1.521A1.462,1.462,0,0,1,1509.868,1449.372Z" fill="#d3d3d3"/>
  </g>
</svg>
